<?xml version="1.0" encoding="UTF-8"?>
<svg xmlns="http://www.w3.org/2000/svg" xmlns:xlink="http://www.w3.org/1999/xlink" width="50pt" height="50pt" viewBox="0 0 50 50" version="1.1">
<g id="surface1">
<path style=" stroke:none;fill-rule:nonzero;fill:rgb(0%,0%,0%);fill-opacity:1;" d="M 48.4375 12.5 L 28.90625 12.5 L 28.90625 6.25 C 28.90625 5.820312 28.554688 5.46875 28.125 5.46875 L 1.5625 5.46875 C 1.132812 5.46875 0.78125 5.820312 0.78125 6.25 L 0.78125 29.6875 C 0.78125 30.117188 1.132812 30.46875 1.5625 30.46875 L 3.90625 30.46875 L 3.90625 35.9375 C 3.90625 36.253906 4.097656 36.539062 4.386719 36.660156 C 4.679688 36.78125 5.015625 36.714844 5.242188 36.492188 L 11.261719 30.46875 L 21.09375 30.46875 L 21.09375 36.71875 C 21.09375 37.148438 21.445312 37.5 21.875 37.5 L 38.738281 37.5 L 44.757812 43.523438 C 44.984375 43.746094 45.320312 43.8125 45.613281 43.691406 C 45.902344 43.570312 46.09375 43.285156 46.09375 42.96875 L 46.09375 37.5 L 48.4375 37.5 C 48.867188 37.5 49.21875 37.148438 49.21875 36.71875 L 49.21875 13.28125 C 49.21875 12.851562 48.867188 12.5 48.4375 12.5 Z M 10.9375 28.90625 C 10.730469 28.90625 10.53125 28.988281 10.382812 29.132812 L 5.46875 34.050781 L 5.46875 29.6875 C 5.46875 29.257812 5.117188 28.90625 4.6875 28.90625 L 2.34375 28.90625 L 2.34375 7.03125 L 27.34375 7.03125 L 27.34375 28.90625 Z M 47.65625 35.9375 L 45.3125 35.9375 C 44.882812 35.9375 44.53125 36.289062 44.53125 36.71875 L 44.53125 41.082031 L 39.617188 36.164062 C 39.46875 36.019531 39.269531 35.9375 39.0625 35.9375 L 22.65625 35.9375 L 22.65625 30.46875 L 28.125 30.46875 C 28.554688 30.46875 28.90625 30.117188 28.90625 29.6875 L 28.90625 14.0625 L 47.65625 14.0625 Z M 47.65625 35.9375 "/>
<path style=" stroke:none;fill-rule:nonzero;fill:rgb(0%,0%,0%);fill-opacity:1;" d="M 21.09375 12.5 L 15.625 12.5 L 15.625 11.71875 C 15.625 11.289062 15.273438 10.9375 14.84375 10.9375 C 14.414062 10.9375 14.0625 11.289062 14.0625 11.71875 L 14.0625 12.5 L 8.59375 12.5 C 8.164062 12.5 7.8125 12.851562 7.8125 13.28125 C 7.8125 13.710938 8.164062 14.0625 8.59375 14.0625 L 11.746094 14.0625 C 11.894531 16.203125 12.640625 18.140625 13.789062 19.632812 C 12.765625 20.550781 11.511719 21.09375 10.15625 21.09375 C 9.726562 21.09375 9.375 21.445312 9.375 21.875 C 9.375 22.304688 9.726562 22.65625 10.15625 22.65625 C 11.914062 22.65625 13.539062 21.957031 14.84375 20.777344 C 16.152344 21.957031 17.773438 22.65625 19.53125 22.65625 C 19.960938 22.65625 20.3125 22.304688 20.3125 21.875 C 20.3125 21.445312 19.960938 21.09375 19.53125 21.09375 C 18.175781 21.09375 16.921875 20.550781 15.898438 19.632812 C 17.046875 18.140625 17.792969 16.203125 17.941406 14.0625 L 21.09375 14.0625 C 21.523438 14.0625 21.875 13.710938 21.875 13.28125 C 21.875 12.851562 21.523438 12.5 21.09375 12.5 Z M 14.84375 18.441406 C 13.953125 17.144531 13.421875 15.632812 13.3125 14.0625 L 16.375 14.0625 C 16.265625 15.632812 15.734375 17.144531 14.84375 18.441406 Z M 14.84375 18.441406 "/>
<path style=" stroke:none;fill-rule:nonzero;fill:rgb(0%,0%,0%);fill-opacity:1;" d="M 32.550781 30.421875 C 32.957031 30.570312 33.402344 30.355469 33.546875 29.949219 L 34.757812 26.5625 L 38.679688 26.5625 L 39.890625 29.949219 C 40.035156 30.355469 40.480469 30.570312 40.886719 30.421875 C 41.292969 30.277344 41.507812 29.832031 41.359375 29.425781 L 37.453125 18.488281 C 37.34375 18.175781 37.050781 17.96875 36.71875 17.96875 C 36.386719 17.96875 36.09375 18.175781 35.984375 18.488281 L 32.078125 29.425781 C 31.929688 29.832031 32.144531 30.277344 32.550781 30.421875 Z M 36.71875 21.074219 L 38.121094 25 L 35.316406 25 Z M 36.71875 21.074219 "/>
</g>
</svg>
