<?xml version="1.0" encoding="UTF-8"?>
<svg xmlns="http://www.w3.org/2000/svg" xmlns:xlink="http://www.w3.org/1999/xlink" width="25pt" height="25pt" viewBox="0 0 25 25" version="1.1">
<g id="surface1">
<path style=" stroke:none;fill-rule:nonzero;fill:rgb(20%,20%,20%);fill-opacity:1;" d="M 23.097656 9.394531 L 12.867188 3.929688 C 12.636719 3.808594 12.363281 3.808594 12.132812 3.929688 L 1.902344 9.394531 C 1.640625 9.535156 1.480469 9.808594 1.488281 10.101562 C 1.496094 10.398438 1.667969 10.664062 1.933594 10.789062 L 4.265625 11.898438 L 4.265625 18.605469 C 4.265625 19.515625 5.175781 20.175781 7.046875 20.621094 C 8.511719 20.96875 10.449219 21.164062 12.5 21.164062 C 14.550781 21.164062 16.484375 20.96875 17.949219 20.621094 C 19.824219 20.175781 20.734375 19.515625 20.734375 18.605469 L 20.734375 11.898438 L 21.664062 11.457031 L 21.664062 14.480469 C 21.664062 14.910156 22.015625 15.261719 22.445312 15.261719 C 22.878906 15.261719 23.226562 14.910156 23.226562 14.480469 L 23.226562 10.6875 C 23.398438 10.542969 23.507812 10.332031 23.511719 10.101562 C 23.519531 9.808594 23.359375 9.535156 23.097656 9.394531 Z M 19.171875 18.492188 C 19.011719 18.628906 18.453125 18.933594 17.15625 19.195312 C 15.863281 19.453125 14.210938 19.597656 12.5 19.597656 C 10.789062 19.597656 9.136719 19.453125 7.84375 19.195312 C 6.546875 18.933594 5.988281 18.628906 5.828125 18.492188 L 5.828125 12.640625 L 12.164062 15.65625 C 12.269531 15.707031 12.386719 15.734375 12.5 15.734375 C 12.613281 15.734375 12.730469 15.707031 12.835938 15.65625 L 19.171875 12.640625 Z M 19.621094 10.699219 C 19.621094 10.699219 19.617188 10.699219 19.617188 10.699219 L 12.5 14.085938 L 5.382812 10.699219 C 5.382812 10.699219 5.378906 10.699219 5.378906 10.699219 L 4.003906 10.042969 L 12.5 5.503906 L 20.996094 10.042969 Z M 19.621094 10.699219 "/>
</g>
</svg>
