<?xml version="1.0" encoding="UTF-8"?>
<svg xmlns="http://www.w3.org/2000/svg" xmlns:xlink="http://www.w3.org/1999/xlink" width="25pt" height="25pt" viewBox="0 0 25 25" version="1.1">
<g id="surface1">
<path style=" stroke:none;fill-rule:nonzero;fill:rgb(20%,20%,20%);fill-opacity:1;" d="M 2.746094 8.195312 L 7.386719 8.195312 C 7.816406 8.195312 8.167969 7.84375 8.167969 7.414062 L 8.167969 3.886719 C 8.167969 3.457031 7.816406 3.105469 7.386719 3.105469 L 2.746094 3.105469 C 2.316406 3.105469 1.964844 3.457031 1.964844 3.886719 L 1.964844 7.414062 C 1.964844 7.84375 2.316406 8.195312 2.746094 8.195312 Z M 3.527344 4.667969 L 6.605469 4.667969 L 6.605469 6.632812 L 3.527344 6.632812 Z M 3.527344 4.667969 "/>
<path style=" stroke:none;fill-rule:nonzero;fill:rgb(20%,20%,20%);fill-opacity:1;" d="M 23.035156 3.886719 C 23.035156 3.457031 22.683594 3.105469 22.253906 3.105469 L 10.703125 3.105469 C 10.273438 3.105469 9.921875 3.457031 9.921875 3.886719 L 9.921875 7.414062 C 9.921875 7.84375 10.273438 8.195312 10.703125 8.195312 L 22.253906 8.195312 C 22.683594 8.195312 23.035156 7.84375 23.035156 7.414062 Z M 21.472656 6.632812 L 11.484375 6.632812 L 11.484375 4.667969 L 21.472656 4.667969 Z M 21.472656 6.632812 "/>
<path style=" stroke:none;fill-rule:nonzero;fill:rgb(20%,20%,20%);fill-opacity:1;" d="M 1.964844 14.261719 C 1.964844 14.695312 2.316406 15.042969 2.746094 15.042969 L 7.386719 15.042969 C 7.816406 15.042969 8.167969 14.695312 8.167969 14.261719 L 8.167969 10.738281 C 8.167969 10.304688 7.816406 9.957031 7.386719 9.957031 L 2.746094 9.957031 C 2.316406 9.957031 1.964844 10.304688 1.964844 10.738281 Z M 3.527344 11.519531 L 6.605469 11.519531 L 6.605469 13.480469 L 3.527344 13.480469 Z M 3.527344 11.519531 "/>
<path style=" stroke:none;fill-rule:nonzero;fill:rgb(20%,20%,20%);fill-opacity:1;" d="M 23.035156 10.738281 C 23.035156 10.304688 22.683594 9.957031 22.253906 9.957031 L 10.703125 9.957031 C 10.273438 9.957031 9.921875 10.304688 9.921875 10.738281 L 9.921875 14.261719 C 9.921875 14.695312 10.273438 15.042969 10.703125 15.042969 L 22.253906 15.042969 C 22.683594 15.042969 23.035156 14.695312 23.035156 14.261719 Z M 21.472656 13.480469 L 11.484375 13.480469 L 11.484375 11.519531 L 21.472656 11.519531 Z M 21.472656 13.480469 "/>
<path style=" stroke:none;fill-rule:nonzero;fill:rgb(20%,20%,20%);fill-opacity:1;" d="M 1.964844 21.113281 C 1.964844 21.542969 2.316406 21.894531 2.746094 21.894531 L 7.386719 21.894531 C 7.816406 21.894531 8.167969 21.542969 8.167969 21.113281 L 8.167969 17.585938 C 8.167969 17.15625 7.816406 16.804688 7.386719 16.804688 L 2.746094 16.804688 C 2.316406 16.804688 1.964844 17.15625 1.964844 17.585938 Z M 3.527344 18.367188 L 6.605469 18.367188 L 6.605469 20.332031 L 3.527344 20.332031 Z M 3.527344 18.367188 "/>
<path style=" stroke:none;fill-rule:nonzero;fill:rgb(20%,20%,20%);fill-opacity:1;" d="M 22.253906 21.894531 C 22.683594 21.894531 23.035156 21.542969 23.035156 21.113281 L 23.035156 17.585938 C 23.035156 17.15625 22.683594 16.804688 22.253906 16.804688 L 10.703125 16.804688 C 10.273438 16.804688 9.921875 17.15625 9.921875 17.585938 L 9.921875 21.113281 C 9.921875 21.542969 10.273438 21.894531 10.703125 21.894531 Z M 11.484375 18.367188 L 21.472656 18.367188 L 21.472656 20.332031 L 11.484375 20.332031 Z M 11.484375 18.367188 "/>
</g>
</svg>
