<?xml version="1.0" encoding="UTF-8"?>
<svg xmlns="http://www.w3.org/2000/svg" xmlns:xlink="http://www.w3.org/1999/xlink" width="25pt" height="25pt" viewBox="0 0 25 25" version="1.1">
<g id="surface1">
<path style=" stroke:none;fill-rule:nonzero;fill:rgb(20%,20%,20%);fill-opacity:1;" d="M 22.410156 11.234375 L 12.996094 2.320312 C 12.71875 2.058594 12.28125 2.058594 12.003906 2.320312 L 2.589844 11.234375 C 2.117188 11.679688 2.433594 12.480469 3.085938 12.480469 L 5.574219 12.480469 L 5.574219 22.273438 C 5.574219 22.605469 5.84375 22.875 6.175781 22.875 L 9.210938 22.875 C 9.542969 22.875 9.8125 22.605469 9.8125 22.273438 L 9.8125 16.324219 C 9.8125 15.992188 10.082031 15.722656 10.414062 15.722656 L 14.585938 15.722656 C 14.917969 15.722656 15.1875 15.992188 15.1875 16.324219 L 15.1875 22.273438 C 15.1875 22.605469 15.457031 22.875 15.789062 22.875 L 18.820312 22.875 C 19.152344 22.875 19.421875 22.605469 19.421875 22.273438 L 19.421875 12.480469 L 21.910156 12.480469 C 22.566406 12.480469 22.882812 11.679688 22.410156 11.234375 Z M 22.410156 11.234375 "/>
</g>
</svg>
