<?xml version="1.0" encoding="UTF-8"?>
<svg xmlns="http://www.w3.org/2000/svg" xmlns:xlink="http://www.w3.org/1999/xlink" width="25pt" height="25pt" viewBox="0 0 25 25" version="1.1">
<g id="surface1">
<path style=" stroke:none;fill-rule:nonzero;fill:rgb(20%,20%,20%);fill-opacity:1;" d="M 12.5 11.761719 C 13.828125 11.761719 15.089844 11.089844 16.054688 9.871094 C 16.921875 8.777344 17.417969 7.402344 17.417969 6.097656 C 17.417969 4.773438 16.894531 3.554688 15.941406 2.664062 C 15.027344 1.8125 13.804688 1.34375 12.5 1.34375 C 11.195312 1.34375 9.972656 1.8125 9.058594 2.664062 C 8.109375 3.554688 7.582031 4.773438 7.582031 6.097656 C 7.582031 7.402344 8.078125 8.777344 8.945312 9.871094 C 9.910156 11.089844 11.171875 11.761719 12.5 11.761719 Z M 10.125 3.808594 C 10.75 3.226562 11.59375 2.90625 12.5 2.90625 C 13.40625 2.90625 14.25 3.226562 14.875 3.808594 C 15.507812 4.398438 15.855469 5.210938 15.855469 6.097656 C 15.855469 7.957031 14.359375 10.199219 12.5 10.199219 C 10.640625 10.199219 9.144531 7.957031 9.144531 6.097656 C 9.144531 5.210938 9.492188 4.398438 10.125 3.808594 Z M 10.125 3.808594 "/>
<path style=" stroke:none;fill-rule:nonzero;fill:rgb(20%,20%,20%);fill-opacity:1;" d="M 5.046875 15.21875 C 4.539062 16.21875 4.375 17.421875 4.546875 18.890625 C 4.738281 20.5 4.984375 21.867188 5.3125 23.078125 C 5.402344 23.417969 5.710938 23.65625 6.066406 23.65625 L 18.9375 23.65625 C 19.289062 23.65625 19.597656 23.417969 19.691406 23.078125 C 20.015625 21.867188 20.265625 20.496094 20.453125 18.890625 C 20.625 17.421875 20.460938 16.21875 19.953125 15.21875 C 19.4375 14.191406 18.492188 13.28125 17.296875 12.652344 C 17.03125 12.515625 16.757812 12.390625 16.476562 12.277344 C 16.25 12.191406 15.992188 12.210938 15.785156 12.335938 C 14.769531 12.953125 13.632812 13.277344 12.5 13.277344 C 11.367188 13.277344 10.230469 12.953125 9.214844 12.335938 C 9.007812 12.210938 8.75 12.191406 8.523438 12.277344 C 8.242188 12.390625 7.96875 12.515625 7.703125 12.652344 C 6.507812 13.28125 5.5625 14.191406 5.046875 15.21875 Z M 8.429688 14.035156 C 8.535156 13.980469 8.644531 13.925781 8.757812 13.875 C 9.925781 14.507812 11.210938 14.839844 12.5 14.839844 C 13.785156 14.839844 15.070312 14.507812 16.242188 13.875 C 16.351562 13.925781 16.460938 13.980469 16.570312 14.035156 C 17.480469 14.511719 18.1875 15.183594 18.558594 15.921875 C 18.929688 16.652344 19.035156 17.539062 18.898438 18.707031 C 18.75 19.984375 18.5625 21.097656 18.324219 22.09375 L 6.671875 22.09375 C 6.4375 21.101562 6.25 19.984375 6.101562 18.707031 C 5.964844 17.535156 6.070312 16.652344 6.441406 15.921875 C 6.8125 15.183594 7.519531 14.515625 8.429688 14.035156 Z M 8.429688 14.035156 "/>
</g>
</svg>
